<?xml version="1.0" encoding="utf-8"?>
<!-- Generator: Adobe Illustrator 18.1.1, SVG Export Plug-In . SVG Version: 6.00 Build 0)  -->
<svg version="1.1" id="Layer_1" xmlns="http://www.w3.org/2000/svg" xmlns:xlink="http://www.w3.org/1999/xlink" x="0px" y="0px"
	 viewBox="0 0 370.5 196.5" enable-background="new 0 0 370.5 196.5" xml:space="preserve">
<circle fill="#69CCE6" cx="185.7" cy="109.9" r="43.3"/>
<circle fill="#69CCE6" cx="284.6" cy="110" r="43.3"/>
<circle fill="#69CCE6" cx="86.6" cy="109.8" r="43.3"/>
<path fill="#FFFFFF" d="M188.9,126.9c0.9-0.3,5.1-2.1,10.7-2.1c3.8,0,7.2,0.6,10,1.8l1.7,0.7l-0.2-17.4h4.9l-2.8,3
	c-0.5,0.5-0.4,1.3,0.1,1.8c0.2,0.2,0.5,0.3,0.8,0.3c0.3,0,0.7-0.1,0.9-0.4l4.8-5.2c0.4-0.4,0.4-0.9,0.2-1.4
	c-0.1-0.2-0.2-0.3-0.3-0.4l-4.8-4.5c-0.5-0.5-1.3-0.4-1.8,0.1c-0.5,0.5-0.4,1.3,0.1,1.8l2.6,2.5h-4.8l0.2-14.3l-0.8-0.3
	c-3.2-1.3-7.2-1.6-11.3-1.6c-6.6,0-11.4,1.8-11.7,1.9l0,0c-10.1-3.7-22.8-0.4-23.3-0.3l-0.9,0.3l0,14.5h-11.3
	c-0.7,0-1.2,0.6-1.2,1.2c0,0.7,0.6,1.2,1.2,1.2h11.3l0,17.2l1.6-0.5c0.1,0,12-3.7,21.4,0.1C186.5,126.9,187.5,127.4,188.9,126.9z
	 M166,95.7c2.9-0.8,12.5-3.2,20.4,0l0,11.9H166L166,95.7z M166,124l0-13.9h20.4l0,14.1C178.5,121.4,169.6,123.1,166,124z
	 M199.6,122.3c-5.8,0-8.6,1.3-10.7,1.9l0-28.5c1.7-0.5,5.6-2,10.4-2c3.5,0,6.6,0.5,9.3,1.5l0.3,28.5
	C206.1,122.7,203,122.3,199.6,122.3z"/>
<path fill="#FFFFFF" d="M114.8,109.5c0-0.5-0.1-0.9-0.5-1.3c-9.1-9.9-18.8-14.7-28.8-14.3c-15.9,0.6-26.6,13.9-27.1,14.4
	c-0.4,0.5-0.5,1-0.3,1.5c0,0.5,0.1,0.9,0.5,1.3c8.8,9.5,18.1,14.4,27.8,14.4c0.3,0,0.7,0,1,0c15.9-0.6,26.6-13.9,27.1-14.4
	C114.8,110.6,114.9,110,114.8,109.5z M87.3,121.9c-8.7,0.3-17.1-3.8-25.2-12.3c2.7-2.9,11.7-11.8,23.6-12.2
	c8.6-0.3,17.1,3.9,25.2,12.3C108.2,112.6,99.2,121.5,87.3,121.9z"/>
<path fill="#FFFFFF" d="M86.2,119.6c-5.4,0-9.7-4.4-9.7-9.8c0-5.4,4.4-9.7,9.7-9.7c5.4,0,9.8,4.4,9.8,9.7
	C96,115.2,91.6,119.6,86.2,119.6z M86.2,103.6c-3.4,0-6.2,2.8-6.2,6.2c0,3.4,2.8,6.2,6.2,6.2c3.4,0,6.2-2.8,6.2-6.2
	C92.4,106.4,89.6,103.6,86.2,103.6z"/>
<g>
	<path fill="#FFFFFF" d="M272.7,132.2l-10.8-10.8l9.9-9.9l4.5,4.5c0.4,0.4,0.4,1.2,0,1.6c-0.4,0.4-1.2,0.4-1.6,0l-2.9-2.9l-6.7,6.7
		l7.5,7.5l8-8.4c0.4-0.5,1.2-0.5,1.6,0c0.5,0.4,0.5,1.2,0,1.6L272.7,132.2z"/>
	<path fill="#FFFFFF" d="M296.7,108.6l-4.5-4.5c-0.4-0.4-0.4-1.2,0-1.6c0.4-0.4,1.2-0.4,1.6,0l2.9,2.9l6.7-6.7l-7.5-7.5l-8,8.4
		c-0.4,0.5-1.2,0.5-1.6,0c-0.5-0.4-0.5-1.2,0-1.6l9.6-10.2l10.8,10.8L296.7,108.6z"/>
	<path fill="#FFFFFF" d="M307.7,132.1l-15-3.5l-0.8-0.3l-30.1-30.1l0-0.5c0.1-3.4,2.4-9.8,10.2-9.9l0.5,0l30,30.4L307.7,132.1z
		 M293.4,126.4l10.7,2.5l-3.5-9.4l-0.1-0.1l-28.8-29.2c-6.1,0.3-7.2,5.6-7.4,7.2l29,29L293.4,126.4z"/>
</g>
</svg>
