<?xml version="1.0" encoding="utf-8"?>
<!-- Generator: Adobe Illustrator 18.1.1, SVG Export Plug-In . SVG Version: 6.00 Build 0)  -->
<svg version="1.1" xmlns="http://www.w3.org/2000/svg" xmlns:xlink="http://www.w3.org/1999/xlink" x="0px" y="0px"
	 viewBox="0 0 509 235" enable-background="new 0 0 509 235" xml:space="preserve">
<g id="Layer_2" display="none">
	<rect x="-10" display="inline" width="519" height="235"/>
</g>
<g id="logo_VS_x2B_D">
	<g>
		<path fill="#FFFFFF" d="M118.5,20.8h31.9l-46.7,136.9H70.2L23.9,20.8h30.6l34,104L118.5,20.8z"/>
		<path fill="#FFFFFF" d="M174.6,116.7c0.8,6.4,2.5,11.2,4.9,14.3c4.4,5.7,12.1,8.6,22.8,8.6c6.5,0,11.7-0.8,15.7-2.3
			c7.6-2.9,11.5-8.3,11.5-16.2c0-4.6-1.9-8.2-5.6-10.7c-3.7-2.5-9.7-4.6-17.8-6.5l-13.9-3.3c-13.6-3.3-23-6.9-28.1-10.7
			c-8.6-6.4-13-16.5-13-30.2c0-12.5,4.2-22.9,12.7-31.2c8.5-8.3,20.9-12.4,37.3-12.4c13.7,0,25.4,3.9,35,11.7
			c9.7,7.8,14.7,19.1,15.2,34h-25.8c-0.5-8.4-3.9-14.4-10.4-17.9c-4.3-2.3-9.6-3.5-16-3.5c-7.1,0-12.7,1.5-17,4.5
			c-4.2,3-6.3,7.3-6.3,12.7c0,5,2.1,8.7,6.2,11.2c2.7,1.6,8.4,3.6,17,5.8l22.5,5.8c9.9,2.5,17.3,5.9,22.2,10.1
			c7.6,6.6,11.5,16.1,11.5,28.5c0,12.8-4.5,23.4-13.6,31.8c-9.1,8.4-21.9,12.7-38.4,12.7c-16.9,0-30.2-4.2-39.8-12.5
			c-9.7-8.3-14.5-19.7-14.5-34.3H174.6z"/>
		<g>
			<path fill="#FFFFFF" d="M241.5,74.5H300v-54h28v54h64.9v28.2h-64.9v54.2h-28v-54.2h-34C266,102.7,265,86.8,241.5,74.5z"/>
		</g>
		<g>
			<path fill="#FFFFFF" d="M478,63.1c-1.7-7.9-5-15.3-9.8-22.1c-6-8.4-13.7-14.2-23.3-17.4c-5.6-1.9-12.7-2.9-21.2-3h-59v41.4h27.8
				V44.5h26.4c13,0,21.7,3.7,26.1,11.2c4.4,7.5,6.6,18.2,6.6,32.1c0,10.1-1.5,18.8-4.4,26.1c-5.3,13.3-14.8,20-28.3,20h-26.4v-19.2
				h-27.8v42.9h59c20.7,0,36-8.5,45.9-25.5c7.3-12.6,11-28.1,11-46.3C480.6,78.6,479.7,71.1,478,63.1z"/>
		</g>
	</g>
	<g>
		<g>
			<path fill="#FFFFFF" d="M45.8,217.2h-3.7l-7.8-20.6h3.3l6.3,18h0.1l6.5-18h3.1L45.8,217.2z"/>
			<path fill="#FFFFFF" d="M56.6,196.6h3v20.6h-3V196.6z"/>
			<path fill="#FFFFFF" d="M74.2,199.7c-1.5-0.6-2.3-0.9-3.9-0.9c-1.7,0-3.6,0.6-3.6,2.7c0,4,8.9,3,8.9,9.8c0,4.4-3.4,6.1-7.5,6.1
				c-1.4,0-2.9-0.4-4.2-0.9l0.3-2.7c1,0.4,2.8,1,4.3,1c1.7,0,4-0.9,4-3.4c0-4.6-8.9-3.3-8.9-9.7c0-3.7,2.9-5.6,6.6-5.6
				c1.4,0,3,0.2,4.4,0.7L74.2,199.7z"/>
			<path fill="#FFFFFF" d="M94.8,208.6c0,5.8-2.9,8.9-8,8.9c-5.1,0-8-3.1-8-8.9v-12.1h3v11.7c0,4,1.2,6.7,5,6.7c3.8,0,5-2.7,5-6.7
				v-11.7h3V208.6z"/>
			<path fill="#FFFFFF" d="M105.2,196.6h3.1l8.7,20.6h-3.2l-2.1-5.2h-10.1l-2.1,5.2h-3.1L105.2,196.6z M106.7,199.3l-4.1,10.2h8.2
				L106.7,199.3z"/>
			<path fill="#FFFFFF" d="M119.7,196.6h3v18h8.6v2.6h-11.6V196.6z"/>
			<path fill="#FFFFFF" d="M152.1,199.7c-1.5-0.6-2.3-0.9-3.9-0.9c-1.7,0-3.6,0.6-3.6,2.7c0,4,8.9,3,8.9,9.8c0,4.4-3.4,6.1-7.5,6.1
				c-1.4,0-2.9-0.4-4.2-0.9l0.3-2.7c1,0.4,2.8,1,4.3,1c1.7,0,4-0.9,4-3.4c0-4.6-8.9-3.3-8.9-9.7c0-3.7,2.9-5.6,6.6-5.6
				c1.4,0,3,0.2,4.4,0.7L152.1,199.7z"/>
			<path fill="#FFFFFF" d="M161.7,199.2h-6.4v-2.6h15.8v2.6h-6.4v18h-3V199.2z"/>
			<path fill="#FFFFFF" d="M181.9,196.2c6.3,0,9.9,4.5,9.9,10.7c0,6.3-3.6,10.7-9.9,10.7c-6.3,0-9.9-4.4-9.9-10.7
				C172,200.7,175.7,196.2,181.9,196.2z M181.9,214.9c4.8,0,6.8-4,6.8-8.1c0-4.2-2.2-8.1-6.8-8.1c-4.5,0-6.8,3.9-6.8,8.1
				C175.1,211,177.2,214.9,181.9,214.9z"/>
			<path fill="#FFFFFF" d="M195.9,196.6h5c4.1,0,8,0.7,8,5.6c0,2.5-1.9,4.3-4.3,4.7v0.1c0.9,0.4,1.4,0.8,2,2.1l3.9,8.2h-3.4
				l-3.2-7.1c-0.9-2-1.9-2-3.5-2h-1.8v9.2h-3V196.6z M198.9,205.4h2.5c2.8,0,4.5-1.2,4.5-3.2c0-1.9-1.4-3-4.1-3h-2.8V205.4z"/>
			<path fill="#FFFFFF" d="M218.9,208.5l-8.1-12h3.5l6.1,9.2l6-9.2h3.5l-8,12v8.6h-3V208.5z"/>
			<path fill="#FFFFFF" d="M237.8,199.2h-6.4v-2.6h15.8v2.6h-6.4v18h-3V199.2z"/>
			<path fill="#FFFFFF" d="M250.2,196.6h11.5v2.6h-8.6v6h7.8v2.6h-7.8v6.8h8.6v2.6h-11.5V196.6z"/>
			<path fill="#FFFFFF" d="M266,196.6h3v18h8.6v2.6H266V196.6z"/>
			<path fill="#FFFFFF" d="M280.7,196.6h3v18h8.6v2.6h-11.6V196.6z"/>
			<path fill="#FFFFFF" d="M295.3,196.6h3v20.6h-3V196.6z"/>
			<path fill="#FFFFFF" d="M303.4,196.6h4l9.1,16.6h0.1v-16.6h3v20.6h-3.8l-9.3-16.9h-0.1v16.9h-3V196.6z"/>
			<path fill="#FFFFFF" d="M340,200.2c-1.4-0.9-3-1.4-5.7-1.4c-4.8,0-7.9,3.5-7.9,8.1c0,4.8,3.5,8.1,7.8,8.1c2,0,2.6-0.2,3.3-0.4
				v-6.3h-4.3v-2.4h7.3v10.7c-1.1,0.4-3.1,0.9-6.3,0.9c-6.5,0-10.9-4.2-10.9-10.7c0-6.3,4.6-10.6,10.9-10.6c3,0,4.3,0.4,6.1,1
				L340,200.2z"/>
			<path fill="#FFFFFF" d="M353.1,205.8h8v-8h3.4v8h8v3.4h-8v8H361v-8h-8V205.8z"/>
			<path fill="#FFFFFF" d="M384.3,196.6h6.1c6.1,0,11,3.8,11,10.1c0,6.9-4.2,10.5-11,10.5h-6.1V196.6z M387.2,214.6h3.1
				c5.1,0,7.9-2.4,7.9-7.8c0-4.8-3.3-7.6-7.5-7.6h-3.5V214.6z"/>
			<path fill="#FFFFFF" d="M405,196.6h11.5v2.6h-8.6v6h7.8v2.6h-7.8v6.8h8.6v2.6H405V196.6z"/>
			<path fill="#FFFFFF" d="M430.2,199.7c-1.5-0.6-2.3-0.9-3.9-0.9c-1.7,0-3.6,0.6-3.6,2.7c0,4,8.9,3,8.9,9.8c0,4.4-3.4,6.1-7.5,6.1
				c-1.4,0-2.9-0.4-4.2-0.9l0.3-2.7c1,0.4,2.8,1,4.3,1c1.7,0,4-0.9,4-3.4c0-4.6-8.9-3.3-8.9-9.7c0-3.7,2.9-5.6,6.6-5.6
				c1.4,0,3,0.2,4.4,0.7L430.2,199.7z"/>
			<path fill="#FFFFFF" d="M435.5,196.6h3v20.6h-3V196.6z"/>
			<path fill="#FFFFFF" d="M459.2,200.2c-1.4-0.9-3-1.4-5.7-1.4c-4.8,0-7.9,3.5-7.9,8.1c0,4.8,3.5,8.1,7.8,8.1c2,0,2.6-0.2,3.3-0.4
				v-6.3h-4.3v-2.4h7.3v10.7c-1.1,0.4-3.1,0.9-6.3,0.9c-6.5,0-10.9-4.2-10.9-10.7c0-6.3,4.6-10.6,10.9-10.6c3,0,4.3,0.4,6.1,1
				L459.2,200.2z"/>
			<path fill="#FFFFFF" d="M464.4,196.6h4l9.1,16.6h0.1v-16.6h3v20.6h-3.8l-9.3-16.9h-0.1v16.9h-3V196.6z"/>
		</g>
	</g>
	<line fill="none" stroke="#FFFFFF" stroke-miterlimit="10" x1="34.3" y1="182" x2="480.3" y2="182"/>
</g>
</svg>
