<?xml version="1.0" encoding="utf-8"?>
<!-- Generator: Adobe Illustrator 16.0.0, SVG Export Plug-In . SVG Version: 6.00 Build 0)  -->
<!DOCTYPE svg PUBLIC "-//W3C//DTD SVG 1.1//EN" "http://www.w3.org/Graphics/SVG/1.1/DTD/svg11.dtd">
<svg version="1.1" id="Layer_1" xmlns="http://www.w3.org/2000/svg" xmlns:xlink="http://www.w3.org/1999/xlink" x="0px" y="0px"
	 width="737.425px" height="224.389px" viewBox="112.194 197.992 737.425 224.389"
	 enable-background="new 112.194 197.992 737.425 224.389" xml:space="preserve">
<circle fill="#69CCE6" cx="481.166" cy="310.187" r="112.194"/>
<circle fill="#69CCE6" cx="737.425" cy="310.445" r="112.194"/>
<circle fill="#69CCE6" cx="224.389" cy="309.927" r="112.194"/>
<path fill="#FFFFFF" d="M489.457,354.234c2.332-0.777,13.215-5.44,27.725-5.44c9.847,0,18.656,1.555,25.911,4.663l4.405,1.814
	l-0.519-45.085h12.696l-7.255,7.773c-1.296,1.295-1.036,3.368,0.259,4.663c0.519,0.519,1.296,0.777,2.073,0.777
	s1.813-0.259,2.332-1.036l12.438-13.474c1.036-1.036,1.036-2.332,0.518-3.627c-0.259-0.519-0.518-0.777-0.777-1.037l-12.437-11.66
	c-1.296-1.295-3.369-1.036-4.664,0.26c-1.296,1.295-1.037,3.368,0.259,4.664l6.737,6.478h-12.438l0.519-37.053l-2.073-0.777
	c-8.292-3.369-18.656-4.146-29.279-4.146c-17.102,0-29.539,4.664-30.316,4.923l0,0c-26.17-9.587-59.076-1.037-60.372-0.777
	l-2.332,0.777v37.571h-29.279c-1.813,0-3.109,1.554-3.109,3.108c0,1.814,1.555,3.109,3.109,3.109h29.279v44.567l4.146-1.296
	c0.26,0,31.094-9.587,55.45,0.259C483.239,354.234,485.83,355.53,489.457,354.234z M430.121,273.393
	c7.515-2.073,32.389-8.292,52.858,0v30.834h-52.858V273.393z M430.121,346.721v-36.017h52.858v36.535
	C462.51,339.983,439.449,344.389,430.121,346.721z M517.183,342.315c-15.028,0-22.284,3.369-27.726,4.924v-73.847
	c4.405-1.295,14.511-5.182,26.948-5.182c9.068,0,17.101,1.295,24.097,3.887l0.777,73.846
	C534.024,343.353,525.992,342.315,517.183,342.315z"/>
<path fill="#FFFFFF" d="M297.458,309.149c0-1.295-0.259-2.332-1.295-3.368c-23.579-25.652-48.713-38.089-74.624-37.053
	c-41.199,1.555-68.923,36.017-70.219,37.312c-1.037,1.296-1.295,2.592-0.777,3.887c0,1.296,0.259,2.332,1.295,3.369
	c22.802,24.615,46.899,37.312,72.033,37.312c0.777,0,1.813,0,2.591,0c41.199-1.555,68.923-36.017,70.219-37.312
	C297.458,312,297.717,310.445,297.458,309.149z M226.203,341.279c-22.542,0.777-44.308-9.846-65.296-31.87
	c6.996-7.515,30.316-30.575,61.15-31.612c22.283-0.777,44.308,10.105,65.295,31.871
	C280.356,317.183,257.037,340.243,226.203,341.279z"/>
<path fill="#FFFFFF" d="M223.352,335.32c-13.992,0-25.133-11.401-25.133-25.394c0-13.991,11.401-25.134,25.133-25.134
	c13.992,0,25.393,11.401,25.393,25.134C248.745,323.919,237.344,335.32,223.352,335.32z M223.352,293.862
	c-8.81,0-16.064,7.255-16.064,16.064c0,8.811,7.255,16.065,16.064,16.065c8.81,0,16.065-7.256,16.065-16.065
	S232.162,293.862,223.352,293.862z"/>
<g>
	<path fill="#FFFFFF" d="M706.591,367.968l-27.983-27.984l25.651-25.651l11.66,11.66c1.036,1.036,1.036,3.109,0,4.146
		s-3.109,1.036-4.146,0l-7.515-7.515l-17.36,17.36l19.434,19.434l20.729-21.766c1.037-1.295,3.109-1.295,4.146,0
		c1.296,1.037,1.296,3.109,0,4.146L706.591,367.968z"/>
	<path fill="#FFFFFF" d="M768.777,306.817l-11.66-11.659c-1.036-1.037-1.036-3.109,0-4.146c1.037-1.036,3.109-1.036,4.146,0
		l7.514,7.515l17.36-17.36l-19.434-19.433l-20.729,21.765c-1.036,1.295-3.109,1.295-4.146,0c-1.296-1.037-1.296-3.109,0-4.146
		l24.874-26.429l27.984,27.983L768.777,306.817z"/>
	<path fill="#FFFFFF" d="M797.279,367.709l-38.866-9.069l-2.073-0.777l-77.991-77.992v-1.296c0.259-8.81,6.218-25.393,26.429-25.652
		h1.296l77.732,78.77L797.279,367.709z M760.227,352.939l27.725,6.478l-9.068-24.356l-0.26-0.259L704,259.142
		c-15.806,0.777-18.656,14.51-19.174,18.656l75.142,75.142H760.227z"/>
</g>
</svg>
