<?xml version="1.0" encoding="utf-8"?>
<!-- Generator: Adobe Illustrator 16.0.0, SVG Export Plug-In . SVG Version: 6.00 Build 0)  -->
<!DOCTYPE svg PUBLIC "-//W3C//DTD SVG 1.1//EN" "http://www.w3.org/Graphics/SVG/1.1/DTD/svg11.dtd">
<svg version="1.1" id="Layer_1" xmlns="http://www.w3.org/2000/svg" xmlns:xlink="http://www.w3.org/1999/xlink" x="0px" y="0px"
	 width="737.425px" height="224.389px" viewBox="0 0 737.425 224.389" enable-background="new 0 0 737.425 224.389"
	 xml:space="preserve">
<circle fill="#69CCE6" cx="368.972" cy="111.937" r="112.194"/>
<circle fill="#69CCE6" cx="625.232" cy="112.195" r="112.194"/>
<circle fill="#69CCE6" cx="112.196" cy="111.677" r="112.194"/>
<path fill="#FFFFFF" d="M377.263,155.985c2.332-0.777,13.215-5.44,27.725-5.44c9.848,0,18.656,1.555,25.912,4.663l4.404,1.814
	l-0.518-45.086h12.695l-7.256,7.773c-1.295,1.295-1.035,3.368,0.26,4.663c0.52,0.519,1.295,0.777,2.072,0.777
	s1.814-0.26,2.332-1.036l12.438-13.475c1.037-1.036,1.037-2.332,0.52-3.627c-0.26-0.519-0.52-0.777-0.777-1.037l-12.438-11.66
	c-1.295-1.295-3.369-1.036-4.664,0.261c-1.295,1.295-1.037,3.367,0.26,4.664l6.736,6.478h-12.438l0.52-37.053l-2.074-0.777
	c-8.291-3.369-18.656-4.146-29.279-4.146c-17.102,0-29.539,4.663-30.314,4.923l0,0c-26.17-9.587-59.076-1.037-60.373-0.777
	l-2.332,0.777v37.57h-29.279c-1.812,0-3.108,1.555-3.108,3.108c0,1.814,1.556,3.109,3.108,3.109h29.279v44.566l4.146-1.296
	c0.26,0,31.094-9.587,55.449,0.26C371.046,155.985,373.636,157.281,377.263,155.985z M317.927,75.143
	c7.516-2.073,32.389-8.292,52.857,0v30.834h-52.857V75.143z M317.927,148.471v-36.017h52.857v36.535
	C350.316,141.734,327.255,146.139,317.927,148.471z M404.99,144.066c-15.027,0-22.283,3.368-27.727,4.924V75.142
	c4.406-1.295,14.512-5.182,26.949-5.182c9.066,0,17.1,1.295,24.096,3.887l0.777,73.847
	C421.832,145.103,413.798,144.066,404.99,144.066z"/>
<path fill="#FFFFFF" d="M185.265,110.9c0-1.296-0.259-2.332-1.295-3.369c-23.579-25.651-48.713-38.089-74.624-37.053
	c-41.199,1.556-68.923,36.018-70.219,37.312c-1.037,1.296-1.295,2.592-0.777,3.887c0,1.296,0.259,2.332,1.295,3.369
	c22.802,24.615,46.899,37.312,72.033,37.312c0.777,0,1.813,0,2.591,0c41.199-1.556,68.923-36.018,70.219-37.312
	C185.265,113.75,185.523,112.196,185.265,110.9z M114.01,143.03c-22.542,0.776-44.308-9.847-65.296-31.87
	c6.996-7.516,30.316-30.575,61.15-31.612c22.283-0.777,44.308,10.104,65.295,31.871C168.163,118.933,144.844,141.993,114.01,143.03z
	"/>
<path fill="#FFFFFF" d="M111.159,137.071c-13.992,0-25.133-11.401-25.133-25.395c0-13.991,11.401-25.134,25.133-25.134
	c13.992,0,25.393,11.4,25.393,25.134C136.552,125.669,125.15,137.071,111.159,137.071z M111.159,95.612
	c-8.81,0-16.064,7.256-16.064,16.064c0,8.812,7.255,16.065,16.064,16.065c8.81,0,16.065-7.256,16.065-16.065
	C127.224,102.867,119.969,95.612,111.159,95.612z"/>
<g>
	<path fill="#FFFFFF" d="M594.398,169.718l-27.982-27.983l25.65-25.651l11.66,11.66c1.035,1.036,1.035,3.108,0,4.146
		c-1.037,1.037-3.109,1.036-4.146,0l-7.516-7.515l-17.359,17.36l19.434,19.434l20.729-21.766c1.037-1.295,3.109-1.295,4.146,0
		c1.297,1.036,1.297,3.108,0,4.146L594.398,169.718z"/>
	<path fill="#FFFFFF" d="M656.583,108.568l-11.66-11.659c-1.035-1.037-1.035-3.109,0-4.146c1.037-1.036,3.109-1.036,4.146,0
		l7.514,7.515l17.359-17.359l-19.434-19.434l-20.729,21.766c-1.037,1.295-3.109,1.295-4.146,0c-1.295-1.037-1.295-3.109,0-4.146
		l24.875-26.429l27.982,27.982L656.583,108.568z"/>
	<path fill="#FFFFFF" d="M685.085,169.459l-38.865-9.069l-2.074-0.776l-77.99-77.992v-1.296c0.26-8.811,6.219-25.394,26.43-25.652
		h1.295l77.732,78.771L685.085,169.459z M648.033,154.69l27.727,6.478l-9.068-24.356l-0.26-0.259l-74.625-75.66
		c-15.805,0.777-18.656,14.51-19.174,18.656l75.143,75.143L648.033,154.69L648.033,154.69z"/>
</g>
</svg>
