<?xml version="1.0" encoding="utf-8"?>
<!-- Generator: Adobe Illustrator 16.0.0, SVG Export Plug-In . SVG Version: 6.00 Build 0)  -->
<!DOCTYPE svg PUBLIC "-//W3C//DTD SVG 1.1//EN" "http://www.w3.org/Graphics/SVG/1.1/DTD/svg11.dtd">
<svg version="1.1" id="Layer_1" xmlns="http://www.w3.org/2000/svg" xmlns:xlink="http://www.w3.org/1999/xlink" x="0px" y="0px"
	 width="861.359px" height="389px" viewBox="0 0 861.359 389" enable-background="new 0 0 861.359 389" xml:space="preserve">
<g id="logo_VS_x2B_D">
	<g>
		<path fill="#FFFFFF" d="M178.421,9.866h60.165l-88.079,258.199H87.324L0,9.866h57.713l64.126,196.148L178.421,9.866z"/>
		<path fill="#FFFFFF" d="M284.229,190.738c1.509,12.072,4.715,21.125,9.242,26.971c8.298,10.75,22.821,16.22,43.002,16.22
			c12.259,0,22.067-1.509,29.611-4.338c14.334-5.47,21.688-15.654,21.688-30.554c0-8.677-3.583-15.466-10.562-20.181
			s-18.295-8.676-33.572-12.26l-26.216-6.224c-25.65-6.224-43.379-13.015-52.998-20.181c-16.22-12.071-24.519-31.12-24.519-56.959
			c0-23.576,7.921-43.19,23.953-58.845C279.89,8.733,303.276,1,334.208,1c25.839,0,47.906,7.355,66.012,22.067
			c18.295,14.711,27.726,36.023,28.668,64.126h-48.66c-0.942-15.843-7.354-27.159-19.614-33.761
			c-8.11-4.338-18.106-6.601-30.177-6.601c-13.391,0-23.953,2.829-32.063,8.487c-7.921,5.658-11.882,13.768-11.882,23.953
			c0,9.431,3.96,16.409,11.693,21.124c5.092,3.018,15.843,6.79,32.063,10.939l42.437,10.939
			c18.672,4.715,32.627,11.127,41.87,19.049c14.334,12.447,21.689,30.365,21.689,53.752c0,24.142-8.487,44.134-25.65,59.977
			c-17.163,15.845-41.305,23.953-72.424,23.953c-31.875,0-56.959-7.922-75.065-23.576c-18.294-15.653-27.348-37.153-27.348-64.69
			H284.229L284.229,190.738z"/>
		<g>
			<path fill="#FFFFFF" d="M410.404,111.147h110.335V9.3h52.81v101.847h122.404v53.187H573.549v102.224h-52.81V164.333h-64.126
				C456.613,164.333,454.729,134.345,410.404,111.147z"/>
		</g>
		<g>
			<path fill="#FFFFFF" d="M856.456,89.646c-3.206-14.9-9.431-28.856-18.483-41.682c-11.314-15.843-25.839-26.782-43.942-32.817
				c-10.562-3.583-23.953-5.47-39.984-5.658H642.767v78.083H695.2V54.566h49.791c24.52,0,40.928,6.979,49.227,21.124
				c8.299,14.146,12.447,34.326,12.447,60.542c0,19.05-2.828,35.459-8.298,49.227c-9.996,25.084-27.914,37.722-53.376,37.722H695.2
				v-36.212h-52.435v80.911h111.277c39.041,0,67.896-16.031,86.569-48.095c13.769-23.766,20.745-52.998,20.745-87.324
				C861.361,118.88,859.662,104.734,856.456,89.646z"/>
		</g>
	</g>
	<g>
		<g>
			<path fill="#FFFFFF" d="M41.305,380.286h-6.979l-14.711-38.854h6.224l11.882,33.949h0.188l12.259-33.949h5.847L41.305,380.286z"
				/>
			<path fill="#FFFFFF" d="M61.674,341.435h5.658v38.854h-5.658V341.435z"/>
			<path fill="#FFFFFF" d="M94.869,347.28c-2.829-1.132-4.338-1.697-7.355-1.697c-3.206,0-6.79,1.132-6.79,5.093
				c0,7.544,16.786,5.658,16.786,18.483c0,8.298-6.413,11.505-14.146,11.505c-2.64,0-5.469-0.755-7.921-1.698l0.566-5.092
				c1.886,0.754,5.281,1.886,8.11,1.886c3.207,0,7.544-1.696,7.544-6.412c0-8.676-16.786-6.225-16.786-18.295
				c0-6.979,5.47-10.562,12.448-10.562c2.64,0,5.658,0.377,8.298,1.317L94.869,347.28z"/>
			<path fill="#FFFFFF" d="M133.722,364.066c0,10.938-5.47,16.785-15.088,16.785c-9.619,0-15.089-5.848-15.089-16.785v-22.821h5.658
				v22.065c0,7.546,2.263,12.638,9.431,12.638c7.167,0,9.43-5.092,9.43-12.638v-22.065h5.658V364.066L133.722,364.066z"/>
			<path fill="#FFFFFF" d="M153.337,341.435h5.847l16.409,38.854h-6.035l-3.961-9.809h-19.049l-3.961,9.809h-5.847L153.337,341.435z
				 M156.166,346.526l-7.733,19.235h15.466L156.166,346.526z"/>
			<path fill="#FFFFFF" d="M180.684,341.435h5.658v33.948h16.22v4.903h-21.878V341.435z"/>
			<path fill="#FFFFFF" d="M241.792,347.28c-2.829-1.132-4.338-1.697-7.355-1.697c-3.206,0-6.79,1.132-6.79,5.093
				c0,7.544,16.786,5.658,16.786,18.483c0,8.298-6.413,11.505-14.146,11.505c-2.64,0-5.469-0.755-7.921-1.698l0.566-5.092
				c1.886,0.754,5.281,1.886,8.11,1.886c3.207,0,7.544-1.696,7.544-6.412c0-8.676-16.786-6.225-16.786-18.295
				c0-6.979,5.469-10.562,12.448-10.562c2.641,0,5.658,0.377,8.299,1.317L241.792,347.28z"/>
			<path fill="#FFFFFF" d="M259.899,346.338h-12.071v-4.903h29.799v4.903h-12.07v33.948h-5.658V346.338L259.899,346.338z"/>
			<path fill="#FFFFFF" d="M297.997,340.68c11.882,0,18.672,8.487,18.672,20.183c0,11.882-6.79,20.181-18.672,20.181
				s-18.672-8.299-18.672-20.181C279.325,349.167,286.303,340.68,297.997,340.68z M297.997,375.948
				c9.053,0,12.825-7.544,12.825-15.276c0-7.922-4.149-15.276-12.825-15.276c-8.487,0-12.825,7.354-12.825,15.276
				C285.172,368.593,289.132,375.948,297.997,375.948z"/>
			<path fill="#FFFFFF" d="M324.402,341.435h9.43c7.733,0,15.088,1.319,15.088,10.562c0,4.715-3.583,8.109-8.11,8.864v0.188
				c1.697,0.754,2.64,1.509,3.772,3.961l7.354,15.465h-6.413l-6.035-13.391c-1.698-3.771-3.583-3.771-6.601-3.771h-3.395v17.353
				h-5.658v-39.229h0.568V341.435z M330.06,358.031h4.715c5.281,0,8.487-2.266,8.487-6.035c0-3.584-2.641-5.658-7.733-5.658h-5.281
				v11.693H330.06z"/>
			<path fill="#FFFFFF" d="M367.78,363.878l-15.277-22.633h6.602l11.505,17.352l11.316-17.352h6.602l-15.089,22.633v16.22h-5.657
				L367.78,363.878L367.78,363.878z"/>
			<path fill="#FFFFFF" d="M403.427,346.338h-12.07v-4.903h29.8v4.903h-12.07v33.948h-5.658L403.427,346.338L403.427,346.338z"/>
			<path fill="#FFFFFF" d="M426.812,341.435h21.69v4.903h-16.221v11.315h14.711v4.902h-14.711v12.825h16.22v4.903h-21.689V341.435
				L426.812,341.435z"/>
			<path fill="#FFFFFF" d="M456.613,341.435h5.656v33.948h16.222v4.903h-21.878V341.435z"/>
			<path fill="#FFFFFF" d="M484.338,341.435h5.658v33.948h16.221v4.903h-21.879V341.435z"/>
			<path fill="#FFFFFF" d="M511.875,341.435h5.658v38.854h-5.658V341.435z"/>
			<path fill="#FFFFFF" d="M527.152,341.435h7.545l17.162,31.31h0.188v-31.31h5.658v38.854h-7.167l-17.541-31.874h-0.188v31.874
				h-5.656V341.435L527.152,341.435z"/>
			<path fill="#FFFFFF" d="M596.182,348.224c-2.641-1.695-5.657-2.641-10.751-2.641c-9.053,0-14.897,6.602-14.897,15.277
				c0,9.053,6.601,15.274,14.711,15.274c3.771,0,4.902-0.377,6.224-0.754v-11.882h-8.108v-4.527h13.767v20.184
				c-2.074,0.754-5.847,1.696-11.882,1.696c-12.261,0-20.561-7.923-20.561-20.182c0-11.883,8.678-19.992,20.561-19.992
				c5.657,0,8.107,0.754,11.505,1.888L596.182,348.224z"/>
			<path fill="#FFFFFF" d="M620.889,358.785h15.088v-15.088h6.413v15.088h15.089v6.413H642.39v15.088h-6.602v-15.088H620.7v-6.413
				H620.889L620.889,358.785z"/>
			<path fill="#FFFFFF" d="M679.733,341.435h11.506c11.505,0,20.745,7.166,20.745,19.05c0,13.015-7.922,19.804-20.745,19.804
				h-11.506V341.435z M685.203,375.383h5.847c9.618,0,14.899-4.524,14.899-14.711c0-9.054-6.226-14.334-14.146-14.334h-6.601
				L685.203,375.383L685.203,375.383z"/>
			<path fill="#FFFFFF" d="M718.774,341.435h21.688v4.903h-16.22v11.315h14.711v4.902h-14.711v12.825h16.22v4.903h-21.688V341.435
				L718.774,341.435z"/>
			<path fill="#FFFFFF" d="M766.303,347.28c-2.829-1.132-4.338-1.697-7.354-1.697c-3.206,0-6.79,1.132-6.79,5.093
				c0,7.544,16.786,5.658,16.786,18.483c0,8.298-6.412,11.505-14.146,11.505c-2.641,0-5.47-0.755-7.921-1.698l0.564-5.092
				c1.887,0.754,5.28,1.886,8.109,1.886c3.206,0,7.544-1.696,7.544-6.412c0-8.676-16.786-6.225-16.786-18.295
				c0-6.979,5.472-10.562,12.448-10.562c2.642,0,5.658,0.377,8.299,1.317L766.303,347.28z"/>
			<path fill="#FFFFFF" d="M776.299,341.435h5.658v38.854h-5.658V341.435z"/>
			<path fill="#FFFFFF" d="M820.998,348.224c-2.641-1.695-5.658-2.641-10.75-2.641c-9.053,0-14.899,6.602-14.899,15.277
				c0,9.053,6.603,15.274,14.711,15.274c3.771,0,4.903-0.377,6.226-0.754v-11.882h-8.109v-4.527h13.769v20.184
				c-2.073,0.754-5.848,1.696-11.883,1.696c-12.26,0-20.559-7.923-20.559-20.182c0-11.883,8.677-19.992,20.559-19.992
				c5.658,0,8.109,0.754,11.506,1.888L820.998,348.224z"/>
			<path fill="#FFFFFF" d="M830.806,341.435h7.545l17.163,31.31h0.188v-31.31h5.657v38.854h-7.166l-17.541-31.874h-0.188v31.874
				h-5.658V341.435L830.806,341.435z"/>
		</g>
	</g>
	<line fill="none" stroke="#FFFFFF" stroke-miterlimit="10" x1="19.615" y1="313.897" x2="860.794" y2="313.897"/>
</g>
</svg>
